<mxfile host="app.diagrams.net" agent="Mozilla/5.0 (Windows NT 10.0; Win64; x64) AppleWebKit/537.36 (KHTML, like Gecko) Chrome/135.0.0.0 Safari/537.36" version="26.2.10">
  <diagram id="R2lEEEUBdFMjLlhIrx00" name="Page-1">
    <mxGraphModel dx="1260" dy="1823" grid="1" gridSize="10" guides="1" tooltips="1" connect="1" arrows="1" fold="1" page="1" pageScale="1" pageWidth="850" pageHeight="1100" math="0" shadow="0" extFonts="Permanent Marker^https://fonts.googleapis.com/css?family=Permanent+Marker">
      <root>
        <mxCell id="0" />
        <mxCell id="1" parent="0" />
        <mxCell id="_R7zqvbn6KATP0oBW9_8-1" value="Rol" style="rounded=0;whiteSpace=wrap;html=1;labelBackgroundColor=none;fillColor=#F2CC8F;strokeColor=#E07A5F;fontColor=#393C56;" parent="1" vertex="1">
          <mxGeometry x="465" y="420" width="120" height="60" as="geometry" />
        </mxCell>
        <mxCell id="_R7zqvbn6KATP0oBW9_8-2" value="Pedido" style="rounded=0;whiteSpace=wrap;html=1;labelBackgroundColor=none;fillColor=#F2CC8F;strokeColor=#E07A5F;fontColor=#393C56;" parent="1" vertex="1">
          <mxGeometry x="930" y="190" width="120" height="60" as="geometry" />
        </mxCell>
        <mxCell id="_R7zqvbn6KATP0oBW9_8-4" value="Producto" style="rounded=0;whiteSpace=wrap;html=1;labelBackgroundColor=none;fillColor=#F2CC8F;strokeColor=#E07A5F;fontColor=#393C56;" parent="1" vertex="1">
          <mxGeometry x="670" y="-250" width="120" height="61" as="geometry" />
        </mxCell>
        <mxCell id="_R7zqvbn6KATP0oBW9_8-5" value="Usuario" style="rounded=0;whiteSpace=wrap;html=1;labelBackgroundColor=none;fillColor=#F2CC8F;strokeColor=#E07A5F;fontColor=#393C56;" parent="1" vertex="1">
          <mxGeometry x="465" y="60" width="120" height="60" as="geometry" />
        </mxCell>
        <mxCell id="_R7zqvbn6KATP0oBW9_8-6" value="Genera" style="rhombus;whiteSpace=wrap;html=1;labelBackgroundColor=none;fillColor=#F2CC8F;strokeColor=#E07A5F;fontColor=#393C56;" parent="1" vertex="1">
          <mxGeometry x="705" y="50" width="110" height="80" as="geometry" />
        </mxCell>
        <mxCell id="_R7zqvbn6KATP0oBW9_8-8" value="Contiene" style="rhombus;whiteSpace=wrap;html=1;labelBackgroundColor=none;fillColor=#F2CC8F;strokeColor=#E07A5F;fontColor=#393C56;" parent="1" vertex="1">
          <mxGeometry x="935" y="-140" width="110" height="80" as="geometry" />
        </mxCell>
        <mxCell id="_R7zqvbn6KATP0oBW9_8-20" value="" style="endArrow=none;html=1;rounded=0;fontSize=12;startSize=8;endSize=8;entryX=1;entryY=0.5;entryDx=0;entryDy=0;exitX=0;exitY=0.5;exitDx=0;exitDy=0;labelBackgroundColor=none;strokeColor=#E07A5F;fontColor=default;edgeStyle=orthogonalEdgeStyle;" parent="1" source="_R7zqvbn6KATP0oBW9_8-2" target="_R7zqvbn6KATP0oBW9_8-6" edge="1">
          <mxGeometry width="50" height="50" relative="1" as="geometry">
            <mxPoint x="390" y="260" as="sourcePoint" />
            <mxPoint x="440" y="210" as="targetPoint" />
          </mxGeometry>
        </mxCell>
        <mxCell id="_R7zqvbn6KATP0oBW9_8-21" value="" style="endArrow=none;html=1;rounded=0;fontSize=12;startSize=8;endSize=8;curved=1;entryX=1;entryY=0.5;entryDx=0;entryDy=0;exitX=0;exitY=0.5;exitDx=0;exitDy=0;labelBackgroundColor=none;strokeColor=#E07A5F;fontColor=default;" parent="1" source="_R7zqvbn6KATP0oBW9_8-6" target="_R7zqvbn6KATP0oBW9_8-5" edge="1">
          <mxGeometry width="50" height="50" relative="1" as="geometry">
            <mxPoint x="390" y="430" as="sourcePoint" />
            <mxPoint x="440" y="380" as="targetPoint" />
          </mxGeometry>
        </mxCell>
        <mxCell id="_R7zqvbn6KATP0oBW9_8-22" value="" style="endArrow=none;html=1;rounded=0;fontSize=12;startSize=8;endSize=8;curved=1;entryX=0.5;entryY=1;entryDx=0;entryDy=0;exitX=0.5;exitY=0;exitDx=0;exitDy=0;labelBackgroundColor=none;strokeColor=#E07A5F;fontColor=default;" parent="1" source="_R7zqvbn6KATP0oBW9_8-2" target="_R7zqvbn6KATP0oBW9_8-8" edge="1">
          <mxGeometry width="50" height="50" relative="1" as="geometry">
            <mxPoint x="390" y="100" as="sourcePoint" />
            <mxPoint x="440" y="50" as="targetPoint" />
          </mxGeometry>
        </mxCell>
        <mxCell id="_R7zqvbn6KATP0oBW9_8-23" value="" style="endArrow=none;html=1;rounded=0;fontSize=12;startSize=8;endSize=8;entryX=0.5;entryY=0;entryDx=0;entryDy=0;exitX=1;exitY=0.5;exitDx=0;exitDy=0;edgeStyle=orthogonalEdgeStyle;labelBackgroundColor=none;strokeColor=#E07A5F;fontColor=default;" parent="1" source="_R7zqvbn6KATP0oBW9_8-4" target="_R7zqvbn6KATP0oBW9_8-8" edge="1">
          <mxGeometry width="50" height="50" relative="1" as="geometry">
            <mxPoint x="390" y="-70" as="sourcePoint" />
            <mxPoint x="440" y="-120" as="targetPoint" />
          </mxGeometry>
        </mxCell>
        <mxCell id="_R7zqvbn6KATP0oBW9_8-27" value="Precio" style="ellipse;whiteSpace=wrap;html=1;labelBackgroundColor=none;fillColor=#F2CC8F;strokeColor=#E07A5F;fontColor=#393C56;" parent="1" vertex="1">
          <mxGeometry x="545" y="-530" width="120" height="80" as="geometry" />
        </mxCell>
        <mxCell id="_R7zqvbn6KATP0oBW9_8-28" value="Cantidad" style="ellipse;whiteSpace=wrap;html=1;labelBackgroundColor=none;fillColor=#F2CC8F;strokeColor=#E07A5F;fontColor=#393C56;" parent="1" vertex="1">
          <mxGeometry x="675" y="-560" width="120" height="80" as="geometry" />
        </mxCell>
        <mxCell id="_R7zqvbn6KATP0oBW9_8-29" value="Fecha de&amp;nbsp;&lt;div&gt;caducidad&lt;/div&gt;" style="ellipse;whiteSpace=wrap;html=1;labelBackgroundColor=none;fillColor=#F2CC8F;strokeColor=#E07A5F;fontColor=#393C56;" parent="1" vertex="1">
          <mxGeometry x="805" y="-500" width="120" height="80" as="geometry" />
        </mxCell>
        <mxCell id="_R7zqvbn6KATP0oBW9_8-30" value="Categoría" style="ellipse;whiteSpace=wrap;html=1;labelBackgroundColor=none;fillColor=#F2CC8F;strokeColor=#E07A5F;fontColor=#393C56;" parent="1" vertex="1">
          <mxGeometry x="895" y="-410" width="120" height="80" as="geometry" />
        </mxCell>
        <mxCell id="_R7zqvbn6KATP0oBW9_8-31" value="Nombre" style="ellipse;whiteSpace=wrap;html=1;labelBackgroundColor=none;fillColor=#F2CC8F;strokeColor=#E07A5F;fontColor=#393C56;" parent="1" vertex="1">
          <mxGeometry x="445" y="-440" width="120" height="80" as="geometry" />
        </mxCell>
        <mxCell id="_R7zqvbn6KATP0oBW9_8-32" value="" style="endArrow=none;html=1;rounded=0;fontSize=12;startSize=8;endSize=8;curved=1;exitX=0;exitY=0;exitDx=0;exitDy=0;entryX=0.5;entryY=1;entryDx=0;entryDy=0;labelBackgroundColor=none;strokeColor=#E07A5F;fontColor=default;" parent="1" source="_R7zqvbn6KATP0oBW9_8-4" target="_R7zqvbn6KATP0oBW9_8-31" edge="1">
          <mxGeometry width="50" height="50" relative="1" as="geometry">
            <mxPoint x="600" y="-260" as="sourcePoint" />
            <mxPoint x="650" y="-310" as="targetPoint" />
          </mxGeometry>
        </mxCell>
        <mxCell id="_R7zqvbn6KATP0oBW9_8-33" value="" style="endArrow=none;html=1;rounded=0;fontSize=12;startSize=8;endSize=8;curved=1;entryX=0.5;entryY=1;entryDx=0;entryDy=0;exitX=0.25;exitY=0;exitDx=0;exitDy=0;labelBackgroundColor=none;strokeColor=#E07A5F;fontColor=default;" parent="1" source="_R7zqvbn6KATP0oBW9_8-4" target="_R7zqvbn6KATP0oBW9_8-27" edge="1">
          <mxGeometry width="50" height="50" relative="1" as="geometry">
            <mxPoint x="600" y="-260" as="sourcePoint" />
            <mxPoint x="650" y="-310" as="targetPoint" />
          </mxGeometry>
        </mxCell>
        <mxCell id="_R7zqvbn6KATP0oBW9_8-34" value="" style="endArrow=none;html=1;rounded=0;fontSize=12;startSize=8;endSize=8;curved=1;entryX=0.5;entryY=1;entryDx=0;entryDy=0;exitX=0.5;exitY=0;exitDx=0;exitDy=0;labelBackgroundColor=none;strokeColor=#E07A5F;fontColor=default;" parent="1" source="_R7zqvbn6KATP0oBW9_8-4" target="_R7zqvbn6KATP0oBW9_8-28" edge="1">
          <mxGeometry width="50" height="50" relative="1" as="geometry">
            <mxPoint x="600" y="-260" as="sourcePoint" />
            <mxPoint x="640" y="-350" as="targetPoint" />
          </mxGeometry>
        </mxCell>
        <mxCell id="_R7zqvbn6KATP0oBW9_8-35" value="" style="endArrow=none;html=1;rounded=0;fontSize=12;startSize=8;endSize=8;curved=1;entryX=0;entryY=1;entryDx=0;entryDy=0;exitX=0.75;exitY=0;exitDx=0;exitDy=0;labelBackgroundColor=none;strokeColor=#E07A5F;fontColor=default;" parent="1" source="_R7zqvbn6KATP0oBW9_8-4" target="_R7zqvbn6KATP0oBW9_8-29" edge="1">
          <mxGeometry width="50" height="50" relative="1" as="geometry">
            <mxPoint x="600" y="-260" as="sourcePoint" />
            <mxPoint x="650" y="-310" as="targetPoint" />
          </mxGeometry>
        </mxCell>
        <mxCell id="_R7zqvbn6KATP0oBW9_8-36" value="" style="endArrow=none;html=1;rounded=0;fontSize=12;startSize=8;endSize=8;curved=1;exitX=1;exitY=0;exitDx=0;exitDy=0;entryX=0;entryY=1;entryDx=0;entryDy=0;labelBackgroundColor=none;strokeColor=#E07A5F;fontColor=default;" parent="1" source="_R7zqvbn6KATP0oBW9_8-4" target="_R7zqvbn6KATP0oBW9_8-30" edge="1">
          <mxGeometry width="50" height="50" relative="1" as="geometry">
            <mxPoint x="600" y="-260" as="sourcePoint" />
            <mxPoint x="650" y="-310" as="targetPoint" />
          </mxGeometry>
        </mxCell>
        <mxCell id="_R7zqvbn6KATP0oBW9_8-40" value="Nombre" style="ellipse;whiteSpace=wrap;html=1;labelBackgroundColor=none;fillColor=#F2CC8F;strokeColor=#E07A5F;fontColor=#393C56;" parent="1" vertex="1">
          <mxGeometry x="210" y="-100" width="120" height="80" as="geometry" />
        </mxCell>
        <mxCell id="_R7zqvbn6KATP0oBW9_8-41" value="Correo" style="ellipse;whiteSpace=wrap;html=1;labelBackgroundColor=none;fillColor=#F2CC8F;strokeColor=#E07A5F;fontColor=#393C56;" parent="1" vertex="1">
          <mxGeometry x="40" y="50" width="120" height="80" as="geometry" />
        </mxCell>
        <mxCell id="_R7zqvbn6KATP0oBW9_8-42" value="Contraseña" style="ellipse;whiteSpace=wrap;html=1;labelBackgroundColor=none;fillColor=#F2CC8F;strokeColor=#E07A5F;fontColor=#393C56;" parent="1" vertex="1">
          <mxGeometry x="190" y="130" width="120" height="80" as="geometry" />
        </mxCell>
        <mxCell id="_R7zqvbn6KATP0oBW9_8-43" value="Rol" style="ellipse;whiteSpace=wrap;html=1;labelBackgroundColor=none;fillColor=#F2CC8F;strokeColor=#E07A5F;fontColor=#393C56;" parent="1" vertex="1">
          <mxGeometry x="50" y="-60" width="120" height="80" as="geometry" />
        </mxCell>
        <mxCell id="_R7zqvbn6KATP0oBW9_8-44" value="Nombre del rol" style="ellipse;whiteSpace=wrap;html=1;labelBackgroundColor=none;fillColor=#F2CC8F;strokeColor=#E07A5F;fontColor=#393C56;" parent="1" vertex="1">
          <mxGeometry x="720" y="410" width="120" height="80" as="geometry" />
        </mxCell>
        <mxCell id="_R7zqvbn6KATP0oBW9_8-46" value="Fecha" style="ellipse;whiteSpace=wrap;html=1;labelBackgroundColor=none;fillColor=#F2CC8F;strokeColor=#E07A5F;fontColor=#393C56;" parent="1" vertex="1">
          <mxGeometry x="1155" y="145" width="120" height="80" as="geometry" />
        </mxCell>
        <mxCell id="_R7zqvbn6KATP0oBW9_8-48" value="Total" style="ellipse;whiteSpace=wrap;html=1;labelBackgroundColor=none;fillColor=#F2CC8F;strokeColor=#E07A5F;fontColor=#393C56;" parent="1" vertex="1">
          <mxGeometry x="1140" y="271" width="120" height="80" as="geometry" />
        </mxCell>
        <mxCell id="_R7zqvbn6KATP0oBW9_8-54" value="" style="endArrow=none;html=1;rounded=0;fontSize=12;startSize=8;endSize=8;curved=1;entryX=0;entryY=0.25;entryDx=0;entryDy=0;exitX=1;exitY=1;exitDx=0;exitDy=0;labelBackgroundColor=none;strokeColor=#E07A5F;fontColor=default;" parent="1" source="_R7zqvbn6KATP0oBW9_8-40" target="_R7zqvbn6KATP0oBW9_8-5" edge="1">
          <mxGeometry width="50" height="50" relative="1" as="geometry">
            <mxPoint x="250" y="50" as="sourcePoint" />
            <mxPoint x="300" as="targetPoint" />
          </mxGeometry>
        </mxCell>
        <mxCell id="_R7zqvbn6KATP0oBW9_8-55" value="" style="endArrow=none;html=1;rounded=0;fontSize=12;startSize=8;endSize=8;curved=1;entryX=0;entryY=0.5;entryDx=0;entryDy=0;exitX=1;exitY=0.5;exitDx=0;exitDy=0;labelBackgroundColor=none;strokeColor=#E07A5F;fontColor=default;" parent="1" source="_R7zqvbn6KATP0oBW9_8-43" target="_R7zqvbn6KATP0oBW9_8-5" edge="1">
          <mxGeometry width="50" height="50" relative="1" as="geometry">
            <mxPoint x="250" y="50" as="sourcePoint" />
            <mxPoint x="300" as="targetPoint" />
          </mxGeometry>
        </mxCell>
        <mxCell id="_R7zqvbn6KATP0oBW9_8-56" value="" style="endArrow=none;html=1;rounded=0;fontSize=12;startSize=8;endSize=8;curved=1;entryX=0;entryY=0.75;entryDx=0;entryDy=0;exitX=1;exitY=0.5;exitDx=0;exitDy=0;labelBackgroundColor=none;strokeColor=#E07A5F;fontColor=default;" parent="1" source="_R7zqvbn6KATP0oBW9_8-41" target="_R7zqvbn6KATP0oBW9_8-5" edge="1">
          <mxGeometry width="50" height="50" relative="1" as="geometry">
            <mxPoint x="250" y="50" as="sourcePoint" />
            <mxPoint x="300" as="targetPoint" />
          </mxGeometry>
        </mxCell>
        <mxCell id="_R7zqvbn6KATP0oBW9_8-57" value="" style="endArrow=none;html=1;rounded=0;fontSize=12;startSize=8;endSize=8;curved=1;entryX=0;entryY=1;entryDx=0;entryDy=0;exitX=1;exitY=0.5;exitDx=0;exitDy=0;labelBackgroundColor=none;strokeColor=#E07A5F;fontColor=default;" parent="1" source="_R7zqvbn6KATP0oBW9_8-42" target="_R7zqvbn6KATP0oBW9_8-5" edge="1">
          <mxGeometry width="50" height="50" relative="1" as="geometry">
            <mxPoint x="250" y="50" as="sourcePoint" />
            <mxPoint x="300" as="targetPoint" />
          </mxGeometry>
        </mxCell>
        <mxCell id="_R7zqvbn6KATP0oBW9_8-61" value="" style="endArrow=none;html=1;rounded=0;fontSize=12;startSize=8;endSize=8;curved=1;entryX=0;entryY=0;entryDx=0;entryDy=0;exitX=1;exitY=1;exitDx=0;exitDy=0;labelBackgroundColor=none;strokeColor=#E07A5F;fontColor=default;" parent="1" source="_R7zqvbn6KATP0oBW9_8-2" target="_R7zqvbn6KATP0oBW9_8-48" edge="1">
          <mxGeometry width="50" height="50" relative="1" as="geometry">
            <mxPoint x="1050" y="260" as="sourcePoint" />
            <mxPoint x="1250" y="120" as="targetPoint" />
          </mxGeometry>
        </mxCell>
        <mxCell id="_R7zqvbn6KATP0oBW9_8-63" value="" style="endArrow=none;html=1;rounded=0;fontSize=12;startSize=8;endSize=8;curved=1;exitX=1;exitY=0.25;exitDx=0;exitDy=0;labelBackgroundColor=none;strokeColor=#E07A5F;fontColor=default;entryX=0;entryY=0.5;entryDx=0;entryDy=0;" parent="1" source="_R7zqvbn6KATP0oBW9_8-2" target="_R7zqvbn6KATP0oBW9_8-46" edge="1">
          <mxGeometry width="50" height="50" relative="1" as="geometry">
            <mxPoint x="1200" y="170" as="sourcePoint" />
            <mxPoint x="1158" y="183" as="targetPoint" />
          </mxGeometry>
        </mxCell>
        <mxCell id="_R7zqvbn6KATP0oBW9_8-65" value="N:M" style="text;html=1;align=center;verticalAlign=middle;resizable=0;points=[];autosize=1;strokeColor=none;fillColor=none;fontSize=16;labelBackgroundColor=none;fontColor=#393C56;" parent="1" vertex="1">
          <mxGeometry x="620" y="-249" width="50" height="30" as="geometry" />
        </mxCell>
        <mxCell id="_R7zqvbn6KATP0oBW9_8-68" value="1:N" style="text;html=1;align=center;verticalAlign=middle;resizable=0;points=[];autosize=1;strokeColor=none;fillColor=none;fontSize=16;labelBackgroundColor=none;fontColor=#393C56;" parent="1" vertex="1">
          <mxGeometry x="949" y="160" width="50" height="30" as="geometry" />
        </mxCell>
        <mxCell id="_R7zqvbn6KATP0oBW9_8-69" value="1:N" style="text;html=1;align=center;verticalAlign=middle;resizable=0;points=[];autosize=1;strokeColor=none;fillColor=none;fontSize=16;labelBackgroundColor=none;fontColor=#393C56;" parent="1" vertex="1">
          <mxGeometry x="790" y="-249" width="50" height="30" as="geometry" />
        </mxCell>
        <mxCell id="_R7zqvbn6KATP0oBW9_8-70" value="1:N" style="text;html=1;align=center;verticalAlign=middle;resizable=0;points=[];autosize=1;strokeColor=none;fillColor=none;fontSize=16;labelBackgroundColor=none;fontColor=#393C56;" parent="1" vertex="1">
          <mxGeometry x="1039" y="-109" width="50" height="30" as="geometry" />
        </mxCell>
        <mxCell id="_R7zqvbn6KATP0oBW9_8-72" value="1:N" style="text;html=1;align=center;verticalAlign=middle;resizable=0;points=[];autosize=1;strokeColor=none;fillColor=none;fontSize=16;labelBackgroundColor=none;fontColor=#393C56;" parent="1" vertex="1">
          <mxGeometry x="885" y="215" width="50" height="30" as="geometry" />
        </mxCell>
        <mxCell id="_R7zqvbn6KATP0oBW9_8-73" value="1:N" style="text;html=1;align=center;verticalAlign=middle;resizable=0;points=[];autosize=1;strokeColor=none;fillColor=none;fontSize=16;labelBackgroundColor=none;fontColor=#393C56;" parent="1" vertex="1">
          <mxGeometry x="520" y="115" width="50" height="30" as="geometry" />
        </mxCell>
        <mxCell id="P6K4_kHg5bh841YSco3p-1" value="" style="endArrow=none;html=1;rounded=0;fontSize=12;startSize=8;endSize=8;entryX=0;entryY=0.5;entryDx=0;entryDy=0;exitX=0.5;exitY=0;exitDx=0;exitDy=0;edgeStyle=orthogonalEdgeStyle;labelBackgroundColor=none;strokeColor=#E07A5F;fontColor=default;" edge="1" parent="1" source="P6K4_kHg5bh841YSco3p-2" target="_R7zqvbn6KATP0oBW9_8-4">
          <mxGeometry width="50" height="50" relative="1" as="geometry">
            <mxPoint x="340" as="sourcePoint" />
            <mxPoint x="390" y="-50" as="targetPoint" />
          </mxGeometry>
        </mxCell>
        <mxCell id="P6K4_kHg5bh841YSco3p-2" value="Ingresa" style="rhombus;whiteSpace=wrap;html=1;labelBackgroundColor=none;fillColor=#F2CC8F;strokeColor=#E07A5F;fontColor=#393C56;" vertex="1" parent="1">
          <mxGeometry x="470" y="-140" width="110" height="80" as="geometry" />
        </mxCell>
        <mxCell id="P6K4_kHg5bh841YSco3p-3" value="" style="endArrow=none;html=1;rounded=0;fontSize=12;startSize=8;endSize=8;curved=1;entryX=0.5;entryY=1;entryDx=0;entryDy=0;exitX=0.5;exitY=0;exitDx=0;exitDy=0;labelBackgroundColor=none;strokeColor=#E07A5F;fontColor=default;" edge="1" parent="1" source="_R7zqvbn6KATP0oBW9_8-5" target="P6K4_kHg5bh841YSco3p-2">
          <mxGeometry width="50" height="50" relative="1" as="geometry">
            <mxPoint x="340" as="sourcePoint" />
            <mxPoint x="390" y="-50" as="targetPoint" />
          </mxGeometry>
        </mxCell>
        <mxCell id="P6K4_kHg5bh841YSco3p-5" value="Tiene" style="rhombus;whiteSpace=wrap;html=1;labelBackgroundColor=none;fillColor=#F2CC8F;strokeColor=#E07A5F;fontColor=#393C56;" vertex="1" parent="1">
          <mxGeometry x="470" y="225" width="110" height="80" as="geometry" />
        </mxCell>
        <mxCell id="P6K4_kHg5bh841YSco3p-6" value="" style="endArrow=none;html=1;rounded=0;fontSize=12;startSize=8;endSize=8;curved=1;entryX=0.5;entryY=1;entryDx=0;entryDy=0;exitX=0.5;exitY=0;exitDx=0;exitDy=0;labelBackgroundColor=none;strokeColor=#E07A5F;fontColor=default;" edge="1" parent="1" source="P6K4_kHg5bh841YSco3p-5" target="_R7zqvbn6KATP0oBW9_8-5">
          <mxGeometry width="50" height="50" relative="1" as="geometry">
            <mxPoint x="340" y="330" as="sourcePoint" />
            <mxPoint x="390" y="280" as="targetPoint" />
          </mxGeometry>
        </mxCell>
        <mxCell id="P6K4_kHg5bh841YSco3p-7" value="" style="endArrow=none;html=1;rounded=0;fontSize=12;startSize=8;endSize=8;curved=1;entryX=0.5;entryY=1;entryDx=0;entryDy=0;exitX=0.5;exitY=0;exitDx=0;exitDy=0;labelBackgroundColor=none;strokeColor=#E07A5F;fontColor=default;" edge="1" parent="1" source="_R7zqvbn6KATP0oBW9_8-1" target="P6K4_kHg5bh841YSco3p-5">
          <mxGeometry width="50" height="50" relative="1" as="geometry">
            <mxPoint x="340" y="330" as="sourcePoint" />
            <mxPoint x="390" y="280" as="targetPoint" />
          </mxGeometry>
        </mxCell>
        <mxCell id="P6K4_kHg5bh841YSco3p-8" value="" style="endArrow=none;html=1;rounded=0;fontSize=12;startSize=8;endSize=8;curved=1;exitX=0;exitY=0.5;exitDx=0;exitDy=0;entryX=1;entryY=0.5;entryDx=0;entryDy=0;labelBackgroundColor=none;strokeColor=#E07A5F;fontColor=default;" edge="1" parent="1" source="_R7zqvbn6KATP0oBW9_8-44" target="_R7zqvbn6KATP0oBW9_8-1">
          <mxGeometry width="50" height="50" relative="1" as="geometry">
            <mxPoint x="340" y="170" as="sourcePoint" />
            <mxPoint x="390" y="120" as="targetPoint" />
          </mxGeometry>
        </mxCell>
        <mxCell id="P6K4_kHg5bh841YSco3p-9" value="1:1" style="text;html=1;align=center;verticalAlign=middle;resizable=0;points=[];autosize=1;strokeColor=none;fillColor=none;fontSize=16;labelBackgroundColor=none;fontColor=#393C56;" vertex="1" parent="1">
          <mxGeometry x="515" y="390" width="50" height="30" as="geometry" />
        </mxCell>
        <mxCell id="P6K4_kHg5bh841YSco3p-10" value="1:N" style="text;html=1;align=center;verticalAlign=middle;resizable=0;points=[];autosize=1;strokeColor=none;fillColor=none;fontSize=16;labelBackgroundColor=none;fontColor=#393C56;" vertex="1" parent="1">
          <mxGeometry x="569" y="225" width="50" height="30" as="geometry" />
        </mxCell>
        <mxCell id="P6K4_kHg5bh841YSco3p-11" value="1:N" style="text;html=1;align=center;verticalAlign=middle;resizable=0;points=[];autosize=1;strokeColor=none;fillColor=none;fontSize=16;labelBackgroundColor=none;fontColor=#393C56;" vertex="1" parent="1">
          <mxGeometry x="580" y="60" width="50" height="30" as="geometry" />
        </mxCell>
        <mxCell id="P6K4_kHg5bh841YSco3p-14" value="N:M" style="text;html=1;align=center;verticalAlign=middle;resizable=0;points=[];autosize=1;strokeColor=none;fillColor=none;fontSize=16;labelBackgroundColor=none;fontColor=#393C56;" vertex="1" parent="1">
          <mxGeometry x="739" y="21" width="50" height="30" as="geometry" />
        </mxCell>
        <mxCell id="P6K4_kHg5bh841YSco3p-15" value="1:N" style="text;html=1;align=center;verticalAlign=middle;resizable=0;points=[];autosize=1;strokeColor=none;fillColor=none;fontSize=16;labelBackgroundColor=none;fontColor=#393C56;" vertex="1" parent="1">
          <mxGeometry x="479" y="31" width="50" height="30" as="geometry" />
        </mxCell>
        <mxCell id="P6K4_kHg5bh841YSco3p-16" value="1:M" style="text;html=1;align=center;verticalAlign=middle;resizable=0;points=[];autosize=1;strokeColor=none;fillColor=none;fontSize=16;labelBackgroundColor=none;fontColor=#393C56;" vertex="1" parent="1">
          <mxGeometry x="429" y="-115" width="50" height="30" as="geometry" />
        </mxCell>
      </root>
    </mxGraphModel>
  </diagram>
</mxfile>
